<svg width="233" height="56" viewBox="0 0 233 56" fill="none" xmlns="http://www.w3.org/2000/svg">
<path d="M70.8333 38.4315H87.158V33.5144H76.6355V14.9934H70.8333V38.4315Z" fill="#E5E5E5"/>
<path d="M96.8298 35.1535C94.5023 35.1535 93.2895 33.1211 93.2895 30.0725C93.2895 27.0239 94.5023 24.9587 96.8298 24.9587C99.1572 24.9587 100.403 27.0239 100.403 30.0725C100.403 33.1211 99.1572 35.1535 96.8298 35.1535ZM96.8625 38.956C102.271 38.956 105.812 35.1207 105.812 30.0725C105.812 25.0243 102.271 21.189 96.8625 21.189C91.4865 21.189 87.8807 25.0243 87.8807 30.0725C87.8807 35.1207 91.4865 38.956 96.8625 38.956Z" fill="#E5E5E5"/>
<path d="M115.174 44.2335C117.665 44.2335 119.861 43.6762 121.337 42.365C122.681 41.1521 123.566 39.3164 123.566 36.7923V21.6477H118.452V23.4506H118.386C117.403 22.0411 115.895 21.156 113.666 21.156C109.503 21.156 106.618 24.6307 106.618 29.5478C106.618 34.6943 110.126 37.5135 113.895 37.5135C115.928 37.5135 117.206 36.694 118.19 35.5794H118.321V37.2512C118.321 39.2836 117.37 40.4637 115.108 40.4637C113.338 40.4637 112.453 39.7098 112.158 38.8247H106.979C107.503 42.3322 110.552 44.2335 115.174 44.2335ZM115.141 33.547C113.141 33.547 111.83 31.908 111.83 29.3839C111.83 26.827 113.141 25.188 115.141 25.188C117.37 25.188 118.55 27.0893 118.55 29.3511C118.55 31.7113 117.468 33.547 115.141 33.547Z" fill="#E5E5E5"/>
<path d="M134.08 35.1535C131.753 35.1535 130.54 33.1211 130.54 30.0725C130.54 27.0239 131.753 24.9587 134.08 24.9587C136.408 24.9587 137.653 27.0239 137.653 30.0725C137.653 33.1211 136.408 35.1535 134.08 35.1535ZM134.113 38.956C139.522 38.956 143.062 35.1207 143.062 30.0725C143.062 25.0243 139.522 21.189 134.113 21.189C128.737 21.189 125.131 25.0243 125.131 30.0725C125.131 35.1207 128.737 38.956 134.113 38.956Z" fill="#E5E5E5"/>
<path d="M144.622 38.4315H149.965V21.6478H144.622V38.4315ZM144.622 19.3204H149.965V14.9934H144.622V19.3204Z" fill="#E5E5E5"/>
<path d="M152.284 43.9712H157.628V36.694H157.693C158.742 38.1035 160.283 38.9558 162.446 38.9558C166.839 38.9558 169.756 35.4811 169.756 30.0395C169.756 24.9913 167.036 21.156 162.578 21.156C160.283 21.156 158.644 22.1722 157.497 23.6801H157.398V21.6477H152.284V43.9712ZM161.07 34.8255C158.775 34.8255 157.464 32.957 157.464 30.2362C157.464 27.5154 158.644 25.4503 160.971 25.4503C163.266 25.4503 164.348 27.3515 164.348 30.2362C164.348 33.0881 163.102 34.8255 161.07 34.8255Z" fill="#E5E5E5"/>
<path d="M178.456 38.9558C182.848 38.9558 186.093 37.0545 186.093 33.3831C186.093 29.0889 182.619 28.3349 179.668 27.8432C177.538 27.4499 175.636 27.286 175.636 26.1059C175.636 25.0569 176.653 24.5652 177.964 24.5652C179.439 24.5652 180.455 25.0241 180.652 26.532H185.569C185.307 23.2212 182.75 21.156 177.997 21.156C174.03 21.156 170.752 22.9917 170.752 26.532C170.752 30.4657 173.866 31.2524 176.784 31.7441C179.013 32.1375 181.045 32.3014 181.045 33.8093C181.045 34.891 180.029 35.4811 178.423 35.4811C176.653 35.4811 175.538 34.6616 175.341 32.9898H170.293C170.457 36.694 173.539 38.9558 178.456 38.9558Z" fill="#E5E5E5"/>
<path d="M193.352 38.923C195.679 38.923 197.154 38.0052 198.367 36.3661H198.465V38.4313H203.579V21.6477H198.236V31.0229C198.236 33.0225 197.121 34.3993 195.286 34.3993C193.581 34.3993 192.762 33.3831 192.762 31.5474V21.6477H187.451V32.6619C187.451 36.3989 189.484 38.923 193.352 38.923Z" fill="#E5E5E5"/>
<path d="M205.902 38.4313H211.246V29.0233C211.246 27.0237 212.229 25.6142 213.901 25.6142C215.507 25.6142 216.261 26.6631 216.261 28.4661V38.4313H221.604V29.0233C221.604 27.0237 222.555 25.6142 224.26 25.6142C225.866 25.6142 226.62 26.6631 226.62 28.4661V38.4313H231.963V27.5154C231.963 23.7457 230.062 21.156 226.259 21.156C224.096 21.156 222.293 22.0739 220.981 24.1062H220.916C220.064 22.3033 218.392 21.156 216.196 21.156C213.77 21.156 212.164 22.3033 211.115 24.0407H211.016V21.6477H205.902V38.4313Z" fill="#E5E5E5"/>
<path fill-rule="evenodd" clip-rule="evenodd" d="M28.2514 54.8216C43.3382 54.8216 55.5685 42.5913 55.5685 27.5045C55.5685 12.4178 43.3382 0.1875 28.2514 0.1875C13.1646 0.1875 0.934326 12.4178 0.934326 27.5045C0.934326 42.5913 13.1646 54.8216 28.2514 54.8216ZM36.7734 12.9129C37.1882 11.4395 35.7583 10.5682 34.4524 11.4985L16.2225 24.4854C14.8062 25.4944 15.029 27.5045 16.5571 27.5045H21.3575V27.4674H30.7134L23.0901 30.1572L19.7295 42.0962C19.3146 43.5697 20.7444 44.441 22.0504 43.5106L40.2804 30.5238C41.6966 29.5148 41.4737 27.5045 39.9457 27.5045H32.666L36.7734 12.9129Z" fill="#E5E5E5"/>
</svg>
