<svg width="56" height="56" viewBox="0 0 56 56" fill="none" xmlns="http://www.w3.org/2000/svg">
<path fill-rule="evenodd" clip-rule="evenodd" d="M28 55.9999C43.464 55.9999 56 43.4639 56 27.9999C56 12.536 43.464 0 28 0C12.536 0 0 12.536 0 27.9999C0 43.4639 12.536 55.9999 28 55.9999ZM36.735 13.0436C37.1602 11.5333 35.6945 10.6402 34.356 11.5938L15.6704 24.9054C14.2187 25.9396 14.447 27.9999 16.0134 27.9999H20.9338V27.9619H30.5235L22.7097 30.7189L19.265 42.9564C18.8398 44.4667 20.3053 45.3598 21.644 44.4061L40.3297 31.0946C41.7813 30.0605 41.5528 27.9999 39.9867 27.9999H32.525L36.735 13.0436Z" fill="#103056"/>
</svg>
